<?xml version="1.0" encoding="UTF-8"?>
<svg xmlns:dc="http://purl.org/dc/elements/1.1/"
     xmlns:cc="http://creativecommons.org/ns#"
     xmlns:rdf="http://www.w3.org/1999/02/22-rdf-syntax-ns#"
     xmlns:svg="http://www.w3.org/2000/svg"
     xmlns="http://www.w3.org/2000/svg"
     viewBox="0 0 533.33331 533.33331"
     height="533.33331"
     width="533.33331"
     xml:space="preserve"
     id="svg2"
     version="1.1"><metadata id="metadata8"><rdf:RDF><cc:Work rdf:about="http://numismatics.org/symbolimages/pella/monogram.price.78.svg"><dc:format>image/svg+xml</dc:format><dc:type rdf:resource="http://purl.org/dc/dcmitype/StillImage"/><cc:license rdf:resource="https://creativecommons.org/choose/mark/"/><dc:creator rdf:resource="https://orcid.org/0000-0001-7542-4252"/></cc:Work></rdf:RDF></metadata><defs id="defs6"><clipPath id="clipPath18" clipPathUnits="userSpaceOnUse"><path id="path16" d="M 0,400 H 400 V 0 H 0 Z"/></clipPath></defs><g transform="matrix(1.3333333,0,0,-1.3333333,0,533.33333)" id="g10"><g id="g12"><g clip-path="url(#clipPath18)" id="g14"><g transform="translate(200,350)" id="g20"><path id="path22"
                     style="fill:none;stroke:#000000;stroke-width:20;stroke-linecap:round;stroke-linejoin:round;stroke-miterlimit:10;stroke-dasharray:none;stroke-opacity:1"
                     d="m 0,0 -150,-300 h 50 c 0,0 -11,50.333 25,50.333 36.667,0 25,-50.333 25,-50.333 H 80"/></g><g transform="translate(200,350)" id="g24"><path id="path26"
                     style="fill:none;stroke:#000000;stroke-width:20;stroke-linecap:round;stroke-linejoin:miter;stroke-miterlimit:10;stroke-dasharray:none;stroke-opacity:1"
                     d="m 0,0 149.776,-299.553 c 0.123,-0.246 0.224,-0.222 0.224,0.053 V 0"/></g><g transform="translate(320,350)" id="g28"><path id="path30"
                     style="fill:none;stroke:#000000;stroke-width:20;stroke-linecap:round;stroke-linejoin:miter;stroke-miterlimit:10;stroke-dasharray:none;stroke-opacity:1"
                     d="M 0,0 H -240"/></g><g transform="translate(125,200)" id="g32"><path id="path34"
                     style="fill:none;stroke:#000000;stroke-width:20;stroke-linecap:round;stroke-linejoin:miter;stroke-miterlimit:10;stroke-dasharray:none;stroke-opacity:1"
                     d="M 0,0 H 150"/></g><g transform="translate(68.1665,228.4165)" id="g36"><path id="path38"
                     style="fill:none;stroke:#000000;stroke-width:20;stroke-linecap:round;stroke-linejoin:miter;stroke-miterlimit:10;stroke-dasharray:none;stroke-opacity:1"
                     d="M 0,0 C 0,15.694 12.723,28.417 28.417,28.417 44.111,28.417 56.833,15.694 56.833,0 56.833,-15.694 44.111,-28.417 28.417,-28.417 12.723,-28.417 0,-15.694 0,0 Z"/></g></g></g></g></svg>