<?xml version="1.0" encoding="UTF-8"?>
<svg xmlns:dc="http://purl.org/dc/elements/1.1/"
     xmlns:cc="http://creativecommons.org/ns#"
     xmlns:rdf="http://www.w3.org/1999/02/22-rdf-syntax-ns#"
     xmlns:svg="http://www.w3.org/2000/svg"
     xmlns="http://www.w3.org/2000/svg"
     viewBox="0 0 533.33331 533.33331"
     height="533.33331"
     width="533.33331"
     xml:space="preserve"
     id="svg2"
     version="1.1"><metadata id="metadata8"><rdf:RDF><cc:Work rdf:about="http://numismatics.org/symbolimages/pella/monogram.price.23.svg"><dc:format>image/svg+xml</dc:format><dc:type rdf:resource="http://purl.org/dc/dcmitype/StillImage"/><cc:license rdf:resource="https://creativecommons.org/choose/mark/"/><dc:creator rdf:resource="https://orcid.org/0000-0001-7542-4252"/></cc:Work></rdf:RDF></metadata><defs id="defs6"><clipPath id="clipPath18" clipPathUnits="userSpaceOnUse"><path id="path16" d="M 0,400 H 400 V 0 H 0 Z"/></clipPath></defs><g transform="matrix(1.3333333,0,0,-1.3333333,0,533.33333)" id="g10"><g id="g12"><g clip-path="url(#clipPath18)" id="g14"><g transform="translate(350,350)" id="g20"><path id="path22"
                     style="fill:none;stroke:#000000;stroke-width:20;stroke-linecap:round;stroke-linejoin:miter;stroke-miterlimit:10;stroke-dasharray:none;stroke-opacity:1"
                     d="M 0,0 V -74.5 C 0,-74.775 -0.225,-75 -0.5,-75 h -299 c -0.275,0 -0.5,0.225 -0.5,0.5 V 0"/></g><g transform="translate(350,50)" id="g24"><path id="path26"
                     style="fill:none;stroke:#000000;stroke-width:20;stroke-linecap:round;stroke-linejoin:miter;stroke-miterlimit:10;stroke-dasharray:none;stroke-opacity:1"
                     d="m 0,0 -148.076,224.583 c -0.152,0.229 -0.276,0.642 -0.276,0.917 v 74 c 0,0.275 0,0.275 0,0 v -74 c 0,-0.275 -0.126,-0.686 -0.28,-0.914 L -299.719,1.803 c -0.155,-0.228 -0.155,-0.228 0,0 l 66.314,97.783 c 0.155,0.227 0.506,0.414 0.781,0.414 h 166.69"/></g></g></g></g></svg>