<?xml version="1.0" encoding="UTF-8"?>
<svg xmlns:dc="http://purl.org/dc/elements/1.1/"
     xmlns:cc="http://creativecommons.org/ns#"
     xmlns:rdf="http://www.w3.org/1999/02/22-rdf-syntax-ns#"
     xmlns:svg="http://www.w3.org/2000/svg"
     xmlns="http://www.w3.org/2000/svg"
     viewBox="0 0 533.33331 533.33331"
     height="533.33331"
     width="533.33331"
     xml:space="preserve"
     id="svg2"
     version="1.1"><metadata id="metadata8"><rdf:RDF><cc:Work rdf:about="http://numismatics.org/symbolimages/pella/monogram.price.59.svg"><dc:format>image/svg+xml</dc:format><dc:type rdf:resource="http://purl.org/dc/dcmitype/StillImage"/><cc:license rdf:resource="https://creativecommons.org/choose/mark/"/><dc:creator rdf:resource="https://orcid.org/0000-0001-7542-4252"/></cc:Work></rdf:RDF></metadata><defs id="defs6"><clipPath id="clipPath18" clipPathUnits="userSpaceOnUse"><path id="path16" d="M 0,400 H 400 V 0 H 0 Z"/></clipPath></defs><g transform="matrix(1.3333333,0,0,-1.3333333,0,533.33333)" id="g10"><g id="g12"><g clip-path="url(#clipPath18)" id="g14"><g transform="translate(350,350)" id="g20"><path id="path22"
                     style="fill:none;stroke:#000000;stroke-width:20;stroke-linecap:round;stroke-linejoin:round;stroke-miterlimit:10;stroke-dasharray:none;stroke-opacity:1"
                     d="m 0,0 v -299.5 c 0,-0.275 -0.101,-0.299 -0.223,-0.053 l -87.843,176.389 c -0.123,0.247 -0.058,0.601 0.144,0.787 0,0 37.255,34.377 13.221,85.044 -25.2,53.121 -74.822,37.483 -74.822,37.483 -0.263,-0.082 -0.578,-0.351 -0.701,-0.597 L -300,-300"/></g><g transform="translate(128.0347,200)" id="g24"><path id="path26"
                     style="fill:none;stroke:#000000;stroke-width:20;stroke-linecap:round;stroke-linejoin:round;stroke-miterlimit:10;stroke-dasharray:none;stroke-opacity:1"
                     d="M 0,0 H 147.264"/></g><g transform="translate(261.7109,227.2837)" id="g28"><path id="path30"
                     style="fill:none;stroke:#000000;stroke-width:20;stroke-linecap:round;stroke-linejoin:round;stroke-miterlimit:10;stroke-dasharray:none;stroke-opacity:1"
                     d="M 0,0 -61.711,122.716"/></g></g></g></g></svg>