<?xml version="1.0" encoding="UTF-8"?>
<svg xmlns:dc="http://purl.org/dc/elements/1.1/"
     xmlns:cc="http://creativecommons.org/ns#"
     xmlns:rdf="http://www.w3.org/1999/02/22-rdf-syntax-ns#"
     xmlns:svg="http://www.w3.org/2000/svg"
     xmlns="http://www.w3.org/2000/svg"
     viewBox="0 0 533.33331 533.33331"
     height="533.33331"
     width="533.33331"
     xml:space="preserve"
     id="svg2"
     version="1.1"><metadata id="metadata8"><rdf:RDF><cc:Work rdf:about="http://numismatics.org/symbolimages/pella/monogram.price.94.svg"><dc:format>image/svg+xml</dc:format><dc:type rdf:resource="http://purl.org/dc/dcmitype/StillImage"/><cc:license rdf:resource="https://creativecommons.org/choose/mark/"/><dc:creator rdf:resource="https://orcid.org/0000-0001-7542-4252"/></cc:Work></rdf:RDF></metadata><defs id="defs6"><clipPath id="clipPath42" clipPathUnits="userSpaceOnUse"><path id="path40" d="M 0,400 H 400 V 0 H 0 Z"/></clipPath></defs><g transform="matrix(1.3333333,0,0,-1.3333333,0,533.33333)" id="g10"><g transform="translate(50,358)" id="g12"><path id="path14"
               style="fill:none;stroke:#000000;stroke-width:20;stroke-linecap:round;stroke-linejoin:round;stroke-miterlimit:10;stroke-dasharray:none;stroke-opacity:1"
               d="M 0,0 V -300"/></g><g transform="translate(200,308)" id="g16"><path id="path18"
               style="fill:none;stroke:#000000;stroke-width:20;stroke-linecap:round;stroke-linejoin:round;stroke-miterlimit:10;stroke-dasharray:none;stroke-opacity:1"
               d="M 0,0 -150,-250"/></g><g transform="translate(350,58)" id="g20"><path id="path22"
               style="fill:none;stroke:#000000;stroke-width:20;stroke-linecap:round;stroke-linejoin:round;stroke-miterlimit:10;stroke-dasharray:none;stroke-opacity:1"
               d="M 0,0 -150,250"/></g><g transform="translate(350,358)" id="g24"><path id="path26"
               style="fill:none;stroke:#000000;stroke-width:20;stroke-linecap:round;stroke-linejoin:round;stroke-miterlimit:10;stroke-dasharray:none;stroke-opacity:1"
               d="M 0,0 V -300"/></g><g transform="translate(50,58)" id="g28"><path id="path30"
               style="fill:none;stroke:#000000;stroke-width:20;stroke-linecap:round;stroke-linejoin:round;stroke-miterlimit:10;stroke-dasharray:none;stroke-opacity:1"
               d="M 0,0 H 300"/></g><g transform="translate(86.8579,119.4297)" id="g32"><path id="path34"
               style="fill:none;stroke:#000000;stroke-width:20;stroke-linecap:round;stroke-linejoin:round;stroke-miterlimit:10;stroke-dasharray:none;stroke-opacity:1"
               d="M 0,0 227.009,-1.208"/></g><g id="g36"><g clip-path="url(#clipPath42)" id="g38"><g transform="translate(200,58)" id="g44"><path id="path46"
                     style="fill:none;stroke:#000000;stroke-width:20;stroke-linecap:round;stroke-linejoin:round;stroke-miterlimit:10;stroke-dasharray:none;stroke-opacity:1"
                     d="M 0,0 V -47.333"/></g><g transform="translate(240.2881,348.3335)" id="g48"><path id="path50"
                     style="fill:none;stroke:#000000;stroke-width:20;stroke-linecap:round;stroke-linejoin:round;stroke-miterlimit:10;stroke-dasharray:none;stroke-opacity:1"
                     d="m 0,0 c 0,-22.092 -17.908,-40 -40,-40 -22.091,0 -40,17.908 -40,40 0,22.091 17.909,40 40,40 C -17.908,40 0,22.091 0,0 Z"/></g><g transform="translate(208.1445,348.3335)" id="g52"><path id="path54"
                     style="fill:none;stroke:#000000;stroke-width:20;stroke-linecap:round;stroke-linejoin:round;stroke-miterlimit:10;stroke-dasharray:none;stroke-opacity:1"
                     d="m 0,0 c 0,-4.339 -3.518,-7.856 -7.856,-7.856 -4.339,0 -7.856,3.517 -7.856,7.856 0,4.338 3.517,7.856 7.856,7.856 C -3.518,7.856 0,4.338 0,0 Z"/></g></g></g></g></svg>