<?xml version="1.0" encoding="UTF-8"?>
<svg xmlns:dc="http://purl.org/dc/elements/1.1/"
     xmlns:cc="http://creativecommons.org/ns#"
     xmlns:rdf="http://www.w3.org/1999/02/22-rdf-syntax-ns#"
     xmlns:svg="http://www.w3.org/2000/svg"
     xmlns="http://www.w3.org/2000/svg"
     viewBox="0 0 533.33331 533.33331"
     height="533.33331"
     width="533.33331"
     xml:space="preserve"
     id="svg2"
     version="1.1"><metadata id="metadata8"><rdf:RDF><cc:Work rdf:about="http://numismatics.org/symbolimages/pella/monogram.price.1269.svg"><dc:format>image/svg+xml</dc:format><dc:type rdf:resource="http://purl.org/dc/dcmitype/StillImage"/><cc:license rdf:resource="https://creativecommons.org/choose/mark/"/><dc:creator rdf:resource="https://orcid.org/0000-0001-7542-4252"/></cc:Work></rdf:RDF></metadata><defs id="defs6"><clipPath id="clipPath30" clipPathUnits="userSpaceOnUse"><path id="path28" d="M 0,400 H 400 V 0 H 0 Z"/></clipPath></defs><g transform="matrix(1.3333333,0,0,-1.3333333,0,533.33333)" id="g10"><g transform="translate(51.0796,319.1694)" id="g12"><path id="path14"
               style="fill:none;stroke:#000000;stroke-width:20;stroke-linecap:round;stroke-linejoin:round;stroke-miterlimit:10;stroke-dasharray:none;stroke-opacity:1"
               d="M 0,0 V -249.169"/></g><g transform="translate(51.0796,319.1694)" id="g16"><path id="path18"
               style="fill:none;stroke:#000000;stroke-width:20;stroke-linecap:round;stroke-linejoin:round;stroke-miterlimit:10;stroke-dasharray:none;stroke-opacity:1"
               d="M 0,0 H 249.169"/></g><g transform="translate(300.249,319.1694)" id="g20"><path id="path22"
               style="fill:none;stroke:#000000;stroke-width:20;stroke-linecap:round;stroke-linejoin:round;stroke-miterlimit:10;stroke-dasharray:none;stroke-opacity:1"
               d="M 0,0 V -249.169"/></g><g id="g24"><g clip-path="url(#clipPath30)" id="g26"><g transform="translate(300.1875,318.9468)" id="g32"><path id="path34"
                     style="fill:none;stroke:#000000;stroke-width:20;stroke-linecap:round;stroke-linejoin:round;stroke-miterlimit:10;stroke-dasharray:none;stroke-opacity:1"
                     d="m 0,0 c 3.374,0.69 6.868,1.053 10.446,1.053 28.627,0 51.833,-23.206 51.833,-51.833 0,-28.627 -23.206,-51.833 -51.833,-51.833 -3.55,0 -7.017,0.357 -10.367,1.036"/></g><g transform="translate(175.6646,319)" id="g36"><path id="path38"
                     style="fill:none;stroke:#000000;stroke-width:20;stroke-linecap:round;stroke-linejoin:round;stroke-miterlimit:10;stroke-dasharray:none;stroke-opacity:1"
                     d="m 0,0 c 0,0 -4.998,-50 -62.292,-50 -53.373,0 -62.293,50 -62.293,50"/></g><g transform="translate(300,319)" id="g40"><path id="path42"
                     style="fill:none;stroke:#000000;stroke-width:20;stroke-linecap:round;stroke-linejoin:round;stroke-miterlimit:10;stroke-dasharray:none;stroke-opacity:1"
                     d="m 0,0 c 0,0 -4.998,-50 -62.292,-50 -53.373,0 -62.293,50 -62.293,50"/></g><g transform="translate(51.0796,70)" id="g44"><path id="path46"
                     style="fill:none;stroke:#000000;stroke-width:20;stroke-linecap:round;stroke-linejoin:round;stroke-miterlimit:10;stroke-dasharray:none;stroke-opacity:1"
                     d="M 0,0 124.585,221"/></g><g transform="translate(299.4316,70)" id="g48"><path id="path50"
                     style="fill:none;stroke:#000000;stroke-width:20;stroke-linecap:round;stroke-linejoin:round;stroke-miterlimit:10;stroke-dasharray:none;stroke-opacity:1"
                     d="M 0,0 -123.767,221"/></g><g transform="translate(90,130)" id="g52"><path id="path54"
                     style="fill:none;stroke:#000000;stroke-width:20;stroke-linecap:round;stroke-linejoin:round;stroke-miterlimit:10;stroke-dasharray:none;stroke-opacity:1"
                     d="M 0,0 H 170"/></g><g transform="translate(175,70)" id="g56"><path id="path58"
                     style="fill:none;stroke:#000000;stroke-width:20;stroke-linecap:round;stroke-linejoin:round;stroke-miterlimit:10;stroke-dasharray:none;stroke-opacity:1"
                     d="M 0,0 V 60"/></g></g></g></g></svg>