<?xml version="1.0" encoding="UTF-8" standalone="no"?>
<svg
   xmlns:dc="http://purl.org/dc/elements/1.1/"
   xmlns:cc="http://creativecommons.org/ns#"
   xmlns:rdf="http://www.w3.org/1999/02/22-rdf-syntax-ns#"
   xmlns:svg="http://www.w3.org/2000/svg"
   xmlns="http://www.w3.org/2000/svg"
   xmlns:sodipodi="http://sodipodi.sourceforge.net/DTD/sodipodi-0.dtd"
   xmlns:inkscape="http://www.inkscape.org/namespaces/inkscape"
   viewBox="0 0 347.04645 426.82696"
   height="426.82697"
   width="347.04645"
   xml:space="preserve"
   id="svg2"
   version="1.1"
   sodipodi:docname="monogram.houghton.1191a.svg"
   inkscape:version="0.92.3 (2405546, 2018-03-11)"><sodipodi:namedview
     pagecolor="#ffffff"
     bordercolor="#666666"
     borderopacity="1"
     objecttolerance="10"
     gridtolerance="10"
     guidetolerance="10"
     inkscape:pageopacity="0"
     inkscape:pageshadow="2"
     inkscape:window-width="614"
     inkscape:window-height="450"
     id="namedview18"
     showgrid="false"
     inkscape:zoom="0.44250002"
     inkscape:cx="173.52323"
     inkscape:cy="213.49337"
     inkscape:window-x="83"
     inkscape:window-y="27"
     inkscape:window-maximized="0"
     inkscape:current-layer="svg2" /><metadata
     id="metadata8"><rdf:RDF><cc:Work
         rdf:about=""><dc:format>image/svg+xml</dc:format><dc:type
           rdf:resource="http://purl.org/dc/dcmitype/StillImage" /></cc:Work></rdf:RDF></metadata><defs
     id="defs6"><clipPath
       id="clipPath18"
       clipPathUnits="userSpaceOnUse"><path
         id="path16"
         d="M 0,400 H 400 V 0 H 0 Z"
         inkscape:connector-curvature="0" /></clipPath></defs><g
     transform="matrix(1.3333333,0,0,-1.3333333,-93.143431,480.00025)"
     id="g10"><g
       id="g12"><g
         clip-path="url(#clipPath18)"
         id="g14"><g
           transform="translate(163.1436,294.4302)"
           id="g20"><path
             id="path22"
             style="fill:none;stroke:#000000;stroke-width:20;stroke-linecap:round;stroke-linejoin:round;stroke-miterlimit:10;stroke-dasharray:none;stroke-opacity:1"
             d="m 0,0 c -2.024,4.786 -3.144,10.047 -3.144,15.57 0,5.523 1.12,10.784 3.144,15.57 2.024,4.785 4.953,9.095 8.572,12.714 3.619,3.619 7.929,6.548 12.715,8.572 4.785,2.025 10.046,3.144 15.569,3.144 5.523,0 10.785,-1.119 15.57,-3.144 4.786,-2.024 9.095,-4.953 12.715,-8.572 3.619,-3.619 6.547,-7.929 8.572,-12.714 2.024,-4.786 3.143,-10.047 3.143,-15.57 0,-5.523 -1.119,-10.784 -3.143,-15.57"
             inkscape:connector-curvature="0" /></g><g
           transform="translate(320,50)"
           id="g24"><path
             id="path26"
             style="fill:none;stroke:#000000;stroke-width:20;stroke-linecap:round;stroke-linejoin:round;stroke-miterlimit:10;stroke-dasharray:none;stroke-opacity:1"
             d="M 0,0 -156.856,244.43"
             inkscape:connector-curvature="0" /></g><g
           transform="translate(80,50)"
           id="g28"><path
             id="path30"
             style="fill:none;stroke:#000000;stroke-width:20;stroke-linecap:round;stroke-linejoin:round;stroke-miterlimit:10;stroke-dasharray:none;stroke-opacity:1"
             d="M 0,0 156.856,244.43"
             inkscape:connector-curvature="0" /></g><g
           transform="translate(80,240)"
           id="g32"><path
             id="path34"
             style="fill:none;stroke:#000000;stroke-width:20;stroke-linecap:round;stroke-linejoin:round;stroke-miterlimit:10;stroke-dasharray:none;stroke-opacity:1"
             d="M 0,0 H 240"
             inkscape:connector-curvature="0" /></g></g></g></g></svg>