<?xml version="1.0" encoding="UTF-8" standalone="no"?>
<svg
   xmlns:dc="http://purl.org/dc/elements/1.1/"
   xmlns:cc="http://creativecommons.org/ns#"
   xmlns:rdf="http://www.w3.org/1999/02/22-rdf-syntax-ns#"
   xmlns:svg="http://www.w3.org/2000/svg"
   xmlns="http://www.w3.org/2000/svg"
   xmlns:sodipodi="http://sodipodi.sourceforge.net/DTD/sodipodi-0.dtd"
   xmlns:inkscape="http://www.inkscape.org/namespaces/inkscape"
   viewBox="0 0 426.66708 426.66708"
   height="426.66708"
   width="426.66708"
   xml:space="preserve"
   id="svg2"
   version="1.1"
   sodipodi:docname="monogram.houghton.1312.1.svg"
   inkscape:version="0.92.3 (2405546, 2018-03-11)"><sodipodi:namedview
     pagecolor="#ffffff"
     bordercolor="#666666"
     borderopacity="1"
     objecttolerance="10"
     gridtolerance="10"
     guidetolerance="10"
     inkscape:pageopacity="0"
     inkscape:pageshadow="2"
     inkscape:window-width="640"
     inkscape:window-height="480"
     id="namedview30"
     showgrid="false"
     inkscape:zoom="0.44250002"
     inkscape:cx="213.33393"
     inkscape:cy="213.33355"
     inkscape:window-x="83"
     inkscape:window-y="27"
     inkscape:window-maximized="0"
     inkscape:current-layer="svg2" /><metadata
     id="metadata8"><rdf:RDF><cc:Work
         rdf:about=""><dc:format>image/svg+xml</dc:format><dc:type
           rdf:resource="http://purl.org/dc/dcmitype/StillImage" /></cc:Work></rdf:RDF></metadata><defs
     id="defs6"><clipPath
       id="clipPath34"
       clipPathUnits="userSpaceOnUse"><path
         id="path32"
         d="M 0,400 H 400 V 0 H 0 Z"
         inkscape:connector-curvature="0" /></clipPath></defs><g
     transform="matrix(1.3333333,0,0,-1.3333333,-53.332725,480.0002)"
     id="g10"><g
       transform="translate(280.1152,279.8853)"
       id="g12"><path
         id="path14"
         style="fill:none;stroke:#000000;stroke-width:20;stroke-linecap:round;stroke-linejoin:round;stroke-miterlimit:10;stroke-dasharray:none;stroke-opacity:1"
         d="M 0,0 -160,0.229"
         inkscape:connector-curvature="0" /></g><g
       transform="translate(279.8848,119.8848)"
       id="g16"><path
         id="path18"
         style="fill:none;stroke:#000000;stroke-width:20;stroke-linecap:round;stroke-linejoin:round;stroke-miterlimit:10;stroke-dasharray:none;stroke-opacity:1"
         d="M 0,0 -160,0.23"
         inkscape:connector-curvature="0" /></g><g
       transform="translate(280.1152,279.8853)"
       id="g20"><path
         id="path22"
         style="fill:none;stroke:#000000;stroke-width:20;stroke-linecap:round;stroke-linejoin:round;stroke-miterlimit:10;stroke-dasharray:none;stroke-opacity:1"
         d="M 0,0 -160.23,-159.77"
         inkscape:connector-curvature="0" /></g><g
       transform="translate(279.8848,119.8848)"
       id="g24"><path
         id="path26"
         style="fill:none;stroke:#000000;stroke-width:20;stroke-linecap:round;stroke-linejoin:round;stroke-miterlimit:10;stroke-dasharray:none;stroke-opacity:1"
         d="M 0,0 -159.77,160.23"
         inkscape:connector-curvature="0" /></g><g
       id="g28"><g
         clip-path="url(#clipPath34)"
         id="g30"><g
           transform="translate(199.7847,50)"
           id="g36"><path
             id="path38"
             style="fill:none;stroke:#000000;stroke-width:20;stroke-linecap:round;stroke-linejoin:round;stroke-miterlimit:10;stroke-dasharray:none;stroke-opacity:1"
             d="M 0,0 C -82.843,0.119 -149.903,67.373 -149.785,150.215 -149.666,233.058 -82.412,300.119 0.431,300 83.273,299.881 150.334,232.627 150.215,149.785 150.096,66.942 82.842,-0.119 0,0 Z"
             inkscape:connector-curvature="0" /></g><g
           transform="translate(280,199.8853)"
           id="g40"><path
             id="path42"
             style="fill:none;stroke:#000000;stroke-width:20;stroke-linecap:round;stroke-linejoin:round;stroke-miterlimit:10;stroke-dasharray:none;stroke-opacity:1"
             d="M 0,0 -160,0.229"
             inkscape:connector-curvature="0" /></g><g
           transform="translate(200.0503,235)"
           id="g44"><path
             id="path46"
             style="fill:#000000;fill-opacity:1;fill-rule:nonzero;stroke:none"
             d="M 0,0 C -5.523,0.008 -9.994,4.492 -9.986,10.014 -9.978,15.537 -5.494,20.008 0.029,20 5.551,19.992 10.022,15.508 10.014,9.985 10.006,4.463 5.523,-0.008 0,0"
             inkscape:connector-curvature="0" /></g><g
           transform="translate(200.0503,235)"
           id="g48"><path
             id="path50"
             style="fill:none;stroke:#000000;stroke-width:1;stroke-linecap:round;stroke-linejoin:round;stroke-miterlimit:10;stroke-dasharray:none;stroke-opacity:1"
             d="M 0,0 C -5.523,0.008 -9.994,4.492 -9.986,10.014 -9.978,15.537 -5.494,20.008 0.029,20 5.551,19.992 10.022,15.508 10.014,9.985 10.006,4.463 5.523,-0.008 0,0 Z"
             inkscape:connector-curvature="0" /></g><g
           transform="translate(199.9219,145.5)"
           id="g52"><path
             id="path54"
             style="fill:#000000;fill-opacity:1;fill-rule:nonzero;stroke:none"
             d="M 0,0 C -5.523,0.008 -9.994,4.491 -9.986,10.015 -9.978,15.537 -5.494,20.008 0.029,20 5.552,19.992 10.022,15.509 10.015,9.985 10.006,4.463 5.522,-0.008 0,0"
             inkscape:connector-curvature="0" /></g><g
           transform="translate(199.9219,145.5)"
           id="g56"><path
             id="path58"
             style="fill:none;stroke:#000000;stroke-width:1;stroke-linecap:round;stroke-linejoin:round;stroke-miterlimit:10;stroke-dasharray:none;stroke-opacity:1"
             d="M 0,0 C -5.523,0.008 -9.994,4.491 -9.986,10.015 -9.978,15.537 -5.494,20.008 0.029,20 5.552,19.992 10.022,15.509 10.015,9.985 10.006,4.463 5.522,-0.008 0,0 Z"
             inkscape:connector-curvature="0" /></g></g></g></g></svg>