<?xml version="1.0" encoding="UTF-8" standalone="no"?>
<svg
   xmlns:dc="http://purl.org/dc/elements/1.1/"
   xmlns:cc="http://creativecommons.org/ns#"
   xmlns:rdf="http://www.w3.org/1999/02/22-rdf-syntax-ns#"
   xmlns:svg="http://www.w3.org/2000/svg"
   xmlns="http://www.w3.org/2000/svg"
   xmlns:sodipodi="http://sodipodi.sourceforge.net/DTD/sodipodi-0.dtd"
   xmlns:inkscape="http://www.inkscape.org/namespaces/inkscape"
   id="Export"
   viewBox="0 0 488.00101 213.28485"
   version="1.1"
   sodipodi:docname="monogram.kharoshthi.108.svg"
   width="488.00101"
   height="213.28485"
   inkscape:version="0.92.5 (2060ec1f9f, 2020-04-08)">
  <metadata
     id="metadata25">
    <rdf:RDF>
      <cc:Work
         rdf:about="">
        <dc:format>image/svg+xml</dc:format>
        <dc:type
           rdf:resource="http://purl.org/dc/dcmitype/StillImage" />
      </cc:Work>
    </rdf:RDF>
  </metadata>
  <sodipodi:namedview
     pagecolor="#ffffff"
     bordercolor="#666666"
     borderopacity="1"
     objecttolerance="10"
     gridtolerance="10"
     guidetolerance="10"
     inkscape:pageopacity="0"
     inkscape:pageshadow="2"
     inkscape:window-width="640"
     inkscape:window-height="480"
     id="namedview23"
     showgrid="false"
     inkscape:zoom="0.44277674"
     inkscape:cx="242.501"
     inkscape:cy="121.64242"
     inkscape:window-x="88"
     inkscape:window-y="27"
     inkscape:window-maximized="0"
     inkscape:current-layer="Export" />
  <defs
     id="defs4">
    <style
       id="style2">.cls-1{fill:none;stroke:#000;stroke-linecap:round;stroke-linejoin:round;stroke-width:20px;}</style>
  </defs>
  <title
     id="title6">onogram.kharoshthi.108</title>
  <path
     class="cls-1"
     d="M 51.001,203.14242 V 58.142425 h 50 c 0,0 25,5 25,34 0,28.999995 -31,30.999995 -31,30.999995 h -41"
     id="path8"
     inkscape:connector-curvature="0"
     style="fill:none;stroke:#000000;stroke-width:20px;stroke-linecap:round;stroke-linejoin:round" />
  <path
     class="cls-1"
     d="m 10.001,10.142425 v 11 c 0,0 8,37 35,37"
     id="path10"
     inkscape:connector-curvature="0"
     style="fill:none;stroke:#000000;stroke-width:20px;stroke-linecap:round;stroke-linejoin:round" />
  <polyline
     class="cls-1"
     points="243 267 243 293.77 243 296.31 243 378"
     id="polyline12"
     style="fill:none;stroke:#000000;stroke-width:20px;stroke-linecap:round;stroke-linejoin:round"
     transform="translate(-23.999,-174.85758)" />
  <path
     class="cls-1"
     d="m 181.001,10.142425 c 0,0 -8,31 23,44 h 56 c 0,0 35,6 35,34 0,27.999995 -29,33.999995 -29,33.999995 h -44"
     id="path14"
     inkscape:connector-curvature="0"
     style="fill:none;stroke:#000000;stroke-width:20px;stroke-linecap:round;stroke-linejoin:round" />
  <polyline
     class="cls-1"
     points="369 375 428.25 375 492 375"
     id="polyline16"
     style="fill:none;stroke:#000000;stroke-width:20px;stroke-linecap:round;stroke-linejoin:round"
     transform="translate(-23.999,-174.85758)" />
  <path
     class="cls-1"
     d="M 404.001,200.14242 V 58.142425 h 42 c 0,0 32,3 32,31 0,27.999995 -29,30.999995 -29,30.999995 h -43"
     id="path18"
     inkscape:connector-curvature="0"
     style="fill:none;stroke:#000000;stroke-width:20px;stroke-linecap:round;stroke-linejoin:round" />
  <path
     class="cls-1"
     d="m 362.001,10.142425 c 0,0 -4,39 42,48"
     id="path20"
     inkscape:connector-curvature="0"
     style="fill:none;stroke:#000000;stroke-width:20px;stroke-linecap:round;stroke-linejoin:round" />
</svg>
