<?xml version="1.0" encoding="UTF-8" standalone="no"?>
<svg
   xmlns:dc="http://purl.org/dc/elements/1.1/"
   xmlns:cc="http://creativecommons.org/ns#"
   xmlns:rdf="http://www.w3.org/1999/02/22-rdf-syntax-ns#"
   xmlns:svg="http://www.w3.org/2000/svg"
   xmlns="http://www.w3.org/2000/svg"
   xmlns:sodipodi="http://sodipodi.sourceforge.net/DTD/sodipodi-0.dtd"
   xmlns:inkscape="http://www.inkscape.org/namespaces/inkscape"
   id="Export"
   viewBox="0 0 460.1637 242.28362"
   version="1.1"
   sodipodi:docname="monogram.kharoshthi.37.svg"
   width="460.1637"
   height="242.28362"
   inkscape:version="0.92.5 (2060ec1f9f, 2020-04-08)">
  <metadata
     id="metadata23">
    <rdf:RDF>
      <cc:Work
         rdf:about="">
        <dc:format>image/svg+xml</dc:format>
        <dc:type
           rdf:resource="http://purl.org/dc/dcmitype/StillImage" />
      </cc:Work>
    </rdf:RDF>
  </metadata>
  <sodipodi:namedview
     pagecolor="#ffffff"
     bordercolor="#666666"
     borderopacity="1"
     objecttolerance="10"
     gridtolerance="10"
     guidetolerance="10"
     inkscape:pageopacity="0"
     inkscape:pageshadow="2"
     inkscape:window-width="640"
     inkscape:window-height="480"
     id="namedview21"
     showgrid="false"
     inkscape:zoom="0.44277674"
     inkscape:cx="230.59362"
     inkscape:cy="116.64242"
     inkscape:window-x="88"
     inkscape:window-y="27"
     inkscape:window-maximized="0"
     inkscape:current-layer="Export" />
  <defs
     id="defs4">
    <style
       id="style2">.cls-1{fill:none;stroke:#000;stroke-linecap:round;stroke-linejoin:round;stroke-width:20px;}</style>
  </defs>
  <title
     id="title6">onogram.kharoshthi.37</title>
  <polyline
     class="cls-1"
     points="46 167 72 197 171 197"
     id="polyline8"
     style="fill:none;stroke:#000000;stroke-width:20px;stroke-linecap:round;stroke-linejoin:round"
     transform="translate(-35.906377,-140.85882)" />
  <line
     class="cls-1"
     x1="135.09363"
     y1="35.141186"
     x2="135.09363"
     y2="232.14119"
     id="line10"
     style="fill:none;stroke:#000000;stroke-width:20px;stroke-linecap:round;stroke-linejoin:round" />
  <path
     class="cls-1"
     d="m 241.09362,10.141184 c 0,0 -8,60 60,73 68,13 104,-42 104,-42 0,0 43,14 45,63.999996 2,50 -39,75 -39,75 l -60,45"
     id="path12"
     inkscape:connector-curvature="0"
     style="fill:none;stroke:#000000;stroke-width:20px;stroke-linecap:round;stroke-linejoin:round" />
  <polyline
     class="cls-1"
     points="46 167 72 197 171 197"
     id="polyline14"
     style="fill:none;stroke:#000000;stroke-width:20px;stroke-linecap:round;stroke-linejoin:round"
     transform="translate(-35.906377,-140.85882)" />
  <line
     class="cls-1"
     x1="135.09363"
     y1="35.141186"
     x2="135.09363"
     y2="232.14119"
     id="line16"
     style="fill:none;stroke:#000000;stroke-width:20px;stroke-linecap:round;stroke-linejoin:round" />
  <path
     class="cls-1"
     d="m 241.09362,10.141184 c 0,0 -8,60 60,73 68,13 104,-42 104,-42 0,0 43,14 45,63.999996 2,50 -39,75 -39,75 l -60,45"
     id="path18"
     inkscape:connector-curvature="0"
     style="fill:none;stroke:#000000;stroke-width:20px;stroke-linecap:round;stroke-linejoin:round" />
</svg>
