<?xml version="1.0" encoding="UTF-8" standalone="no"?>
<!-- Created with Inkscape (http://www.inkscape.org/) -->

<svg
   xmlns:dc="http://purl.org/dc/elements/1.1/"
   xmlns:cc="http://creativecommons.org/ns#"
   xmlns:rdf="http://www.w3.org/1999/02/22-rdf-syntax-ns#"
   xmlns:svg="http://www.w3.org/2000/svg"
   xmlns="http://www.w3.org/2000/svg"
   xmlns:sodipodi="http://sodipodi.sourceforge.net/DTD/sodipodi-0.dtd"
   xmlns:inkscape="http://www.inkscape.org/namespaces/inkscape"
   width="50.279305mm"
   height="58.737232mm"
   viewBox="0 0 50.279305 58.737232"
   version="1.1"
   id="svg1432"
   inkscape:version="0.92.5 (2060ec1f9f, 2020-04-08)"
   sodipodi:docname="monogram.kharoshthi.69_2.svg">
  <defs
     id="defs1426" />
  <sodipodi:namedview
     id="base"
     pagecolor="#ffffff"
     bordercolor="#666666"
     borderopacity="1.0"
     inkscape:pageopacity="0.0"
     inkscape:pageshadow="2"
     inkscape:zoom="0.35"
     inkscape:cx="-272.12685"
     inkscape:cy="-314.71479"
     inkscape:document-units="mm"
     inkscape:current-layer="layer1"
     showgrid="false"
     inkscape:window-width="3752"
     inkscape:window-height="2096"
     inkscape:window-x="88"
     inkscape:window-y="27"
     inkscape:window-maximized="1" />
  <metadata
     id="metadata1429">
    <rdf:RDF>
      <cc:Work
         rdf:about="">
        <dc:format>image/svg+xml</dc:format>
        <dc:type
           rdf:resource="http://purl.org/dc/dcmitype/StillImage" />
        <dc:title />
      </cc:Work>
    </rdf:RDF>
  </metadata>
  <g
     inkscape:label="Layer 1"
     inkscape:groupmode="layer"
     id="layer1"
     transform="translate(-12.657967,-6.8278123)">
    <path
       class="cls-1"
       d="m 15.312279,10.796292 c 0,0 2.38125,10.58334 13.22916,12.43542 10.84792,1.85208 31.75,-13.7583296 31.75,-13.7583296 V 53.658802 c 0,0 -4.23333,9.26041 -13.49375,9.26041 -9.26041,0 -11.64166,-3.70416 -10.58333,-9.26041 1.05833,-5.55625 11.37708,-6.61459 16.13958,-2.64584"
       id="path8"
       inkscape:connector-curvature="0"
       style="fill:none;stroke:#000000;stroke-width:5.29166651px;stroke-linecap:round;stroke-linejoin:round" />
    <path
       class="cls-1"
       d="m 15.312279,10.796292 c 0,0 2.38125,10.58334 13.22916,12.43542 10.84792,1.85208 31.75,-13.7583296 31.75,-13.7583296 V 53.658802 c 0,0 -4.23333,9.26041 -13.49375,9.26041 -9.26041,0 -11.64166,-3.70416 -10.58333,-9.26041 1.05833,-5.55625 11.37708,-6.61459 16.13958,-2.64584"
       id="path12"
       inkscape:connector-curvature="0"
       style="fill:none;stroke:#000000;stroke-width:5.29166651px;stroke-linecap:round;stroke-linejoin:round" />
  </g>
</svg>
