<?xml version="1.0" encoding="UTF-8" standalone="no"?>
<svg
   xmlns:dc="http://purl.org/dc/elements/1.1/"
   xmlns:cc="http://creativecommons.org/ns#"
   xmlns:rdf="http://www.w3.org/1999/02/22-rdf-syntax-ns#"
   xmlns:svg="http://www.w3.org/2000/svg"
   xmlns="http://www.w3.org/2000/svg"
   xmlns:sodipodi="http://sodipodi.sourceforge.net/DTD/sodipodi-0.dtd"
   xmlns:inkscape="http://www.inkscape.org/namespaces/inkscape"
   viewBox="0 0 489.0361 167.16721"
   version="1.1"
   id="svg24"
   sodipodi:docname="monogram.kharoshthi.17.svg"
   width="489.0361"
   height="167.16721"
   inkscape:version="0.92.5 (2060ec1f9f, 2020-04-08)">
  <metadata
     id="metadata28">
    <rdf:RDF>
      <cc:Work
         rdf:about="">
        <dc:format>image/svg+xml</dc:format>
        <dc:type
           rdf:resource="http://purl.org/dc/dcmitype/StillImage" />
      </cc:Work>
    </rdf:RDF>
  </metadata>
  <sodipodi:namedview
     pagecolor="#ffffff"
     bordercolor="#666666"
     borderopacity="1"
     objecttolerance="10"
     gridtolerance="10"
     guidetolerance="10"
     inkscape:pageopacity="0"
     inkscape:pageshadow="2"
     inkscape:window-width="640"
     inkscape:window-height="480"
     id="namedview26"
     showgrid="false"
     inkscape:zoom="0.44277674"
     inkscape:cx="244.52571"
     inkscape:cy="110.64242"
     inkscape:window-x="88"
     inkscape:window-y="27"
     inkscape:window-maximized="0"
     inkscape:current-layer="svg24" />
  <defs
     id="defs4">
    <style
       id="style2">.cls-1{fill:none;stroke:#000;stroke-linecap:round;stroke-linejoin:round;stroke-width:20px;}</style>
  </defs>
  <title
     id="title6">onogram.kharoshthi.17</title>
  <g
     id="Base"
     transform="translate(-21.974294,-209.97521)">
    <path
       class="cls-1"
       d="m 207,226 c 0,0 4,59 68,60"
       id="path8"
       inkscape:connector-curvature="0"
       style="fill:none;stroke:#000000;stroke-width:20px;stroke-linecap:round;stroke-linejoin:round" />
    <polyline
       class="cls-1"
       points="241 367 275 367 310 367"
       id="polyline10"
       style="fill:none;stroke:#000000;stroke-width:20px;stroke-linecap:round;stroke-linejoin:round" />
    <path
       class="cls-1"
       d="M 275,367 V 240 c 0,0 15,-30 45,-14 0,0 15,16 9,30 l -50,33"
       id="path12"
       inkscape:connector-curvature="0"
       style="fill:none;stroke:#000000;stroke-width:20px;stroke-linecap:round;stroke-linejoin:round" />
    <path
       class="cls-1"
       d="m 377,226 c 0,0 5,57 68,60"
       id="path14"
       inkscape:connector-curvature="0"
       style="fill:none;stroke:#000000;stroke-width:20px;stroke-linecap:round;stroke-linejoin:round" />
    <path
       class="cls-1"
       d="m 404,357 c 0,0 8,-7 -2,-16 -10,-9 -25,3 -25,3 l 31,23 c 39,-5 37,-33 37,-33 v -89 c 0,0 5,-26 31,-25 26,1 25,33 25,33 l -53,40"
       id="path16"
       inkscape:connector-curvature="0"
       style="fill:none;stroke:#000000;stroke-width:20px;stroke-linecap:round;stroke-linejoin:round" />
  </g>
  <g
     id="Export"
     transform="translate(-21.974294,-209.97521)">
    <path
       class="cls-1"
       d="m 32,226 c 0,0 11,62 71,60"
       id="path19"
       inkscape:connector-curvature="0"
       style="fill:none;stroke:#000000;stroke-width:20px;stroke-linecap:round;stroke-linejoin:round" />
    <path
       class="cls-1"
       d="M 103,367 V 244 c 0,0 8,-33 38,-21 0,0 21,8 18,30 l -50,38"
       id="path21"
       inkscape:connector-curvature="0"
       style="fill:none;stroke:#000000;stroke-width:20px;stroke-linecap:round;stroke-linejoin:round" />
  </g>
</svg>
