<?xml version="1.0" encoding="UTF-8" standalone="no"?>
<svg
   xmlns:dc="http://purl.org/dc/elements/1.1/"
   xmlns:cc="http://creativecommons.org/ns#"
   xmlns:rdf="http://www.w3.org/1999/02/22-rdf-syntax-ns#"
   xmlns:svg="http://www.w3.org/2000/svg"
   xmlns="http://www.w3.org/2000/svg"
   xmlns:sodipodi="http://sodipodi.sourceforge.net/DTD/sodipodi-0.dtd"
   xmlns:inkscape="http://www.inkscape.org/namespaces/inkscape"
   id="Export"
   viewBox="0 0 461.31708 178.26846"
   version="1.1"
   sodipodi:docname="monogram.kharoshthi.38.svg"
   width="461.31708"
   height="178.26846"
   inkscape:version="0.92.5 (2060ec1f9f, 2020-04-08)">
  <metadata
     id="metadata39">
    <rdf:RDF>
      <cc:Work
         rdf:about="">
        <dc:format>image/svg+xml</dc:format>
        <dc:type
           rdf:resource="http://purl.org/dc/dcmitype/StillImage" />
      </cc:Work>
    </rdf:RDF>
  </metadata>
  <sodipodi:namedview
     pagecolor="#ffffff"
     bordercolor="#666666"
     borderopacity="1"
     objecttolerance="10"
     gridtolerance="10"
     guidetolerance="10"
     inkscape:pageopacity="0"
     inkscape:pageshadow="2"
     inkscape:window-width="640"
     inkscape:window-height="480"
     id="namedview37"
     showgrid="false"
     inkscape:zoom="0.44277674"
     inkscape:cx="230.50108"
     inkscape:cy="87.642425"
     inkscape:window-x="88"
     inkscape:window-y="27"
     inkscape:window-maximized="0"
     inkscape:current-layer="Export" />
  <defs
     id="defs4">
    <style
       id="style2">.cls-1{fill:none;stroke:#000;stroke-linecap:round;stroke-linejoin:round;stroke-width:20px;}</style>
  </defs>
  <title
     id="title6">onogram.kharoshthi.38</title>
  <path
     class="cls-1"
     d="m 10.001085,24.126033 c 0,0 0,20 16,20 h 72 V 168.12603"
     id="path8"
     inkscape:connector-curvature="0"
     style="fill:none;stroke:#000000;stroke-width:20px;stroke-linecap:round;stroke-linejoin:round" />
  <line
     class="cls-1"
     x1="61.001083"
     y1="10.126033"
     x2="24.001085"
     y2="80.12603"
     id="line10"
     style="fill:none;stroke:#000000;stroke-width:20px;stroke-linecap:round;stroke-linejoin:round" />
  <path
     class="cls-1"
     d="m 161.00108,33.126033 c 0,0 -10,22 6,39 16,17 35,0 39,-4 4,-4 61,-35 61,-35 V 156.12603"
     id="path12"
     inkscape:connector-curvature="0"
     style="fill:none;stroke:#000000;stroke-width:20px;stroke-linecap:round;stroke-linejoin:round" />
  <line
     class="cls-1"
     x1="219.00108"
     y1="33.126034"
     x2="219.00108"
     y2="108.12603"
     id="line14"
     style="fill:none;stroke:#000000;stroke-width:20px;stroke-linecap:round;stroke-linejoin:round" />
  <path
     class="cls-1"
     d="m 331.00108,24.126033 c 0,0 -9,46 60,47"
     id="path16"
     inkscape:connector-curvature="0"
     style="fill:none;stroke:#000000;stroke-width:20px;stroke-linecap:round;stroke-linejoin:round" />
  <path
     class="cls-1"
     d="m 395.00108,71.126033 32,-23 c 0,0 34,11 22,43 -12,31.999997 -17,31.999997 -17,31.999997 l -37,29"
     id="path18"
     inkscape:connector-curvature="0"
     style="fill:none;stroke:#000000;stroke-width:20px;stroke-linecap:round;stroke-linejoin:round" />
  <line
     class="cls-1"
     x1="366.0011"
     y1="33.126034"
     x2="331.0011"
     y2="104.12603"
     id="line20"
     style="fill:none;stroke:#000000;stroke-width:20px;stroke-linecap:round;stroke-linejoin:round" />
  <path
     class="cls-1"
     d="m 10.001085,24.126033 c 0,0 0,20 16,20 h 72 V 168.12603"
     id="path22"
     inkscape:connector-curvature="0"
     style="fill:none;stroke:#000000;stroke-width:20px;stroke-linecap:round;stroke-linejoin:round" />
  <line
     class="cls-1"
     x1="61.001083"
     y1="10.126033"
     x2="24.001085"
     y2="80.12603"
     id="line24"
     style="fill:none;stroke:#000000;stroke-width:20px;stroke-linecap:round;stroke-linejoin:round" />
  <path
     class="cls-1"
     d="m 161.00108,33.126033 c 0,0 -10,22 6,39 16,17 35,0 39,-4 4,-4 61,-35 61,-35 V 156.12603"
     id="path26"
     inkscape:connector-curvature="0"
     style="fill:none;stroke:#000000;stroke-width:20px;stroke-linecap:round;stroke-linejoin:round" />
  <line
     class="cls-1"
     x1="219.00108"
     y1="33.126034"
     x2="219.00108"
     y2="108.12603"
     id="line28"
     style="fill:none;stroke:#000000;stroke-width:20px;stroke-linecap:round;stroke-linejoin:round" />
  <path
     class="cls-1"
     d="m 331.00108,24.126033 c 0,0 -9,46 60,47"
     id="path30"
     inkscape:connector-curvature="0"
     style="fill:none;stroke:#000000;stroke-width:20px;stroke-linecap:round;stroke-linejoin:round" />
  <path
     class="cls-1"
     d="m 395.00108,71.126033 32,-23 c 0,0 34,11 22,43 -12,31.999997 -17,31.999997 -17,31.999997 l -37,29"
     id="path32"
     inkscape:connector-curvature="0"
     style="fill:none;stroke:#000000;stroke-width:20px;stroke-linecap:round;stroke-linejoin:round" />
  <line
     class="cls-1"
     x1="366.0011"
     y1="33.126034"
     x2="331.0011"
     y2="104.12603"
     id="line34"
     style="fill:none;stroke:#000000;stroke-width:20px;stroke-linecap:round;stroke-linejoin:round" />
</svg>
