<?xml version="1.0" encoding="UTF-8" standalone="no"?>
<svg
   xmlns:dc="http://purl.org/dc/elements/1.1/"
   xmlns:cc="http://creativecommons.org/ns#"
   xmlns:rdf="http://www.w3.org/1999/02/22-rdf-syntax-ns#"
   xmlns:svg="http://www.w3.org/2000/svg"
   xmlns="http://www.w3.org/2000/svg"
   xmlns:sodipodi="http://sodipodi.sourceforge.net/DTD/sodipodi-0.dtd"
   xmlns:inkscape="http://www.inkscape.org/namespaces/inkscape"
   id="Export"
   viewBox="0 0 294.10297 432.16245"
   version="1.1"
   sodipodi:docname="monogram.bop.217.svg"
   width="294.10297"
   height="432.16245"
   inkscape:version="0.92.5 (2060ec1f9f, 2020-04-08)">
  <metadata
     id="metadata23">
    <rdf:RDF>
      <cc:Work
         rdf:about="">
        <dc:format>image/svg+xml</dc:format>
        <dc:type
           rdf:resource="http://purl.org/dc/dcmitype/StillImage" />
      </cc:Work>
    </rdf:RDF>
  </metadata>
  <sodipodi:namedview
     pagecolor="#ffffff"
     bordercolor="#666666"
     borderopacity="1"
     objecttolerance="10"
     gridtolerance="10"
     guidetolerance="10"
     inkscape:pageopacity="0"
     inkscape:pageshadow="2"
     inkscape:window-width="640"
     inkscape:window-height="480"
     id="namedview21"
     showgrid="false"
     inkscape:zoom="0.44277674"
     inkscape:cx="149.60296"
     inkscape:cy="207.64242"
     inkscape:window-x="88"
     inkscape:window-y="27"
     inkscape:window-maximized="0"
     inkscape:current-layer="Export" />
  <defs
     id="defs4">
    <style
       id="style2">.cls-1{fill:none;stroke:#000;stroke-linecap:round;stroke-linejoin:round;stroke-width:20px;}</style>
  </defs>
  <title
     id="title6">b217</title>
  <polygon
     class="cls-1"
     points="401,189 401,464 127,464 127,189 129.51,189 "
     id="polygon8"
     style="fill:none;stroke:#000000;stroke-width:20px;stroke-linecap:round;stroke-linejoin:round"
     transform="translate(-116.89704,-41.979975)" />
  <path
     class="cls-1"
     d="M 148.10296,422.02003 V 44.020025 c 0,0 15,-34.9999996 58,-34 0,0 45,2 55,40 10,38 -16,53.000005 -16,53.000005"
     id="path10"
     inkscape:connector-curvature="0"
     style="fill:none;stroke:#000000;stroke-width:20px;stroke-linecap:round;stroke-linejoin:round" />
  <polyline
     class="cls-1"
     points="127 193.85 265 326.5 127 464"
     id="polyline12"
     style="fill:none;stroke:#000000;stroke-width:20px;stroke-linecap:round;stroke-linejoin:round"
     transform="translate(-116.89704,-41.979975)" />
  <polygon
     class="cls-1"
     points="401,189 401,464 127,464 127,189 129.51,189 "
     id="polygon14"
     style="fill:none;stroke:#000000;stroke-width:20px;stroke-linecap:round;stroke-linejoin:round"
     transform="translate(-116.89704,-41.979975)" />
  <path
     class="cls-1"
     d="M 148.10296,422.02003 V 44.020025 c 0,0 15,-34.9999996 58,-34 0,0 45,2 55,40 10,38 -16,53.000005 -16,53.000005"
     id="path16"
     inkscape:connector-curvature="0"
     style="fill:none;stroke:#000000;stroke-width:20px;stroke-linecap:round;stroke-linejoin:round" />
  <polyline
     class="cls-1"
     points="127 193.85 265 326.5 127 464"
     id="polyline18"
     style="fill:none;stroke:#000000;stroke-width:20px;stroke-linecap:round;stroke-linejoin:round"
     transform="translate(-116.89704,-41.979975)" />
</svg>
