<?xml version="1.0" encoding="UTF-8" standalone="no"?>
<svg
   xmlns:dc="http://purl.org/dc/elements/1.1/"
   xmlns:cc="http://creativecommons.org/ns#"
   xmlns:rdf="http://www.w3.org/1999/02/22-rdf-syntax-ns#"
   xmlns:svg="http://www.w3.org/2000/svg"
   xmlns="http://www.w3.org/2000/svg"
   xmlns:sodipodi="http://sodipodi.sourceforge.net/DTD/sodipodi-0.dtd"
   xmlns:inkscape="http://www.inkscape.org/namespaces/inkscape"
   id="Export"
   viewBox="0 0 318.21729 338.14243"
   version="1.1"
   sodipodi:docname="monogram.bop.262.svg"
   width="318.21729"
   height="338.14243"
   inkscape:version="0.92.5 (2060ec1f9f, 2020-04-08)">
  <metadata
     id="metadata27">
    <rdf:RDF>
      <cc:Work
         rdf:about="">
        <dc:format>image/svg+xml</dc:format>
        <dc:type
           rdf:resource="http://purl.org/dc/dcmitype/StillImage" />
      </cc:Work>
    </rdf:RDF>
  </metadata>
  <sodipodi:namedview
     pagecolor="#ffffff"
     bordercolor="#666666"
     borderopacity="1"
     objecttolerance="10"
     gridtolerance="10"
     guidetolerance="10"
     inkscape:pageopacity="0"
     inkscape:pageshadow="2"
     inkscape:window-width="640"
     inkscape:window-height="480"
     id="namedview25"
     showgrid="false"
     inkscape:zoom="0.44277674"
     inkscape:cx="153.60003"
     inkscape:cy="170.64242"
     inkscape:window-x="88"
     inkscape:window-y="27"
     inkscape:window-maximized="0"
     inkscape:current-layer="Export" />
  <defs
     id="defs4">
    <style
       id="style2">.cls-1{fill:none;stroke:#000;stroke-linecap:round;stroke-linejoin:round;stroke-width:20px;}</style>
  </defs>
  <title
     id="title6">b262</title>
  <path
     class="cls-1"
     d="m 10.100027,305 c 0,0 51,-52 10,-132 -1.39,14.91 133.530003,190.46 275.000003,-10"
     id="path8"
     inkscape:connector-curvature="0"
     style="fill:none;stroke:#000000;stroke-width:20px;stroke-linecap:round;stroke-linejoin:round" />
  <path
     class="cls-1"
     d="m 295.10003,163 c 3.63,2.26 -77.46,85.33 13,148"
     id="path10"
     inkscape:connector-curvature="0"
     style="fill:none;stroke:#000000;stroke-width:20px;stroke-linecap:round;stroke-linejoin:round" />
  <path
     class="cls-1"
     d="M 154.10003,328 V 43 c 0,0 3,-33 33,-33 30,0 33,24 33,35"
     id="path12"
     inkscape:connector-curvature="0"
     style="fill:none;stroke:#000000;stroke-width:20px;stroke-linecap:round;stroke-linejoin:round" />
  <polygon
     class="cls-1"
     points="265,158 333,265 176,265 "
     id="polygon14"
     style="fill:none;stroke:#000000;stroke-width:20px;stroke-linecap:round;stroke-linejoin:round"
     transform="translate(-112.89997,-99)" />
  <path
     class="cls-1"
     d="m 10.100027,305 c 0,0 51,-52 10,-132 -1.39,14.91 133.530003,190.46 275.000003,-10"
     id="path16"
     inkscape:connector-curvature="0"
     style="fill:none;stroke:#000000;stroke-width:20px;stroke-linecap:round;stroke-linejoin:round" />
  <path
     class="cls-1"
     d="m 295.10003,163 c 3.63,2.26 -77.46,85.33 13,148"
     id="path18"
     inkscape:connector-curvature="0"
     style="fill:none;stroke:#000000;stroke-width:20px;stroke-linecap:round;stroke-linejoin:round" />
  <path
     class="cls-1"
     d="M 154.10003,328 V 43 c 0,0 3,-33 33,-33 30,0 33,24 33,35"
     id="path20"
     inkscape:connector-curvature="0"
     style="fill:none;stroke:#000000;stroke-width:20px;stroke-linecap:round;stroke-linejoin:round" />
  <polygon
     class="cls-1"
     points="265,158 333,265 176,265 "
     id="polygon22"
     style="fill:none;stroke:#000000;stroke-width:20px;stroke-linecap:round;stroke-linejoin:round"
     transform="translate(-112.89997,-99)" />
</svg>
