<?xml version="1.0" encoding="UTF-8" standalone="no"?>
<svg
   xmlns:dc="http://purl.org/dc/elements/1.1/"
   xmlns:cc="http://creativecommons.org/ns#"
   xmlns:rdf="http://www.w3.org/1999/02/22-rdf-syntax-ns#"
   xmlns:svg="http://www.w3.org/2000/svg"
   xmlns="http://www.w3.org/2000/svg"
   xmlns:sodipodi="http://sodipodi.sourceforge.net/DTD/sodipodi-0.dtd"
   xmlns:inkscape="http://www.inkscape.org/namespaces/inkscape"
   id="Export"
   viewBox="0 0 240.00101 342.48743"
   version="1.1"
   sodipodi:docname="monogram.kharoshthi.87.svg"
   width="240.00101"
   height="342.48743"
   inkscape:version="0.92.5 (2060ec1f9f, 2020-04-08)">
  <metadata
     id="metadata15">
    <rdf:RDF>
      <cc:Work
         rdf:about="">
        <dc:format>image/svg+xml</dc:format>
        <dc:type
           rdf:resource="http://purl.org/dc/dcmitype/StillImage" />
      </cc:Work>
    </rdf:RDF>
  </metadata>
  <sodipodi:namedview
     pagecolor="#ffffff"
     bordercolor="#666666"
     borderopacity="1"
     objecttolerance="10"
     gridtolerance="10"
     guidetolerance="10"
     inkscape:pageopacity="0"
     inkscape:pageshadow="2"
     inkscape:window-width="640"
     inkscape:window-height="480"
     id="namedview13"
     showgrid="false"
     inkscape:zoom="0.44277674"
     inkscape:cx="122.501"
     inkscape:cy="156.84501"
     inkscape:window-x="88"
     inkscape:window-y="27"
     inkscape:window-maximized="0"
     inkscape:current-layer="Export" />
  <defs
     id="defs4">
    <style
       id="style2">.cls-1,.cls-2{fill:none;stroke:#000;stroke-width:20px;}.cls-1{stroke-miterlimit:10;}.cls-2{stroke-linecap:round;stroke-linejoin:round;}</style>
  </defs>
  <title
     id="title6">onogram.kharoshthi.87</title>
  <path
     class="cls-1"
     d="m 10.001,10.142425 v 88 h 220 V 272.14242 c 0,0 -3.45,26.94 -27.58,44.08 a 69.86,69.86 0 0 1 -7.35,4.53 71.51,71.51 0 0 1 -10.07,4.39 c -40,14 -74,9 -82,-25 -8,-34 55,-69 85,-3 0,0 9,18 1,27"
     id="path8"
     inkscape:connector-curvature="0"
     style="fill:none;stroke:#000000;stroke-width:20px;stroke-miterlimit:10" />
  <path
     class="cls-2"
     d="m 10.001,10.142425 v 88 h 220 V 272.14242 c 0,0 -3.45,26.94 -27.58,44.08 a 69.86,69.86 0 0 1 -7.35,4.53 71.51,71.51 0 0 1 -10.07,4.39 c -40,14 -74,9 -82,-25 -8,-34 55,-69 85,-3 0,0 9,18 1,27"
     id="path10"
     inkscape:connector-curvature="0"
     style="fill:none;stroke:#000000;stroke-width:20px;stroke-linecap:round;stroke-linejoin:round" />
</svg>
