<?xml version="1.0" encoding="UTF-8" standalone="no"?>
<svg
   xmlns:dc="http://purl.org/dc/elements/1.1/"
   xmlns:cc="http://creativecommons.org/ns#"
   xmlns:rdf="http://www.w3.org/1999/02/22-rdf-syntax-ns#"
   xmlns:svg="http://www.w3.org/2000/svg"
   xmlns="http://www.w3.org/2000/svg"
   xmlns:sodipodi="http://sodipodi.sourceforge.net/DTD/sodipodi-0.dtd"
   xmlns:inkscape="http://www.inkscape.org/namespaces/inkscape"
   id="Export"
   viewBox="0 0 308.01651 429.27423"
   version="1.1"
   sodipodi:docname="monogram.kharoshthi.21.svg"
   width="308.01651"
   height="429.27423"
   inkscape:version="0.92.5 (2060ec1f9f, 2020-04-08)">
  <metadata
     id="metadata23">
    <rdf:RDF>
      <cc:Work
         rdf:about="">
        <dc:format>image/svg+xml</dc:format>
        <dc:type
           rdf:resource="http://purl.org/dc/dcmitype/StillImage" />
      </cc:Work>
    </rdf:RDF>
  </metadata>
  <sodipodi:namedview
     pagecolor="#ffffff"
     bordercolor="#666666"
     borderopacity="1"
     objecttolerance="10"
     gridtolerance="10"
     guidetolerance="10"
     inkscape:pageopacity="0"
     inkscape:pageshadow="2"
     inkscape:window-width="640"
     inkscape:window-height="480"
     id="namedview21"
     showgrid="false"
     inkscape:zoom="0.44277674"
     inkscape:cx="176.51551"
     inkscape:cy="219.64242"
     inkscape:window-x="88"
     inkscape:window-y="27"
     inkscape:window-maximized="0"
     inkscape:current-layer="Export" />
  <defs
     id="defs4">
    <style
       id="style2">.cls-1{fill:none;stroke:#000;stroke-linecap:round;stroke-linejoin:round;stroke-width:20px;}</style>
  </defs>
  <title
     id="title6">onogram.kharoshthi.21</title>
  <path
     class="cls-1"
     d="M 163.01551,186.13179 C 23.015514,180.13179 10.015514,54.131792 10.015514,54.131792"
     id="path8"
     inkscape:connector-curvature="0"
     style="fill:none;stroke:#000000;stroke-width:20px;stroke-linecap:round;stroke-linejoin:round" />
  <path
     class="cls-1"
     d="M 170.01551,419.13179 V 54.131792 c 0,0 14,-46.9999996 72,-44 58,3 53,58 53,72 0,14 -15,56.999998 -48,74.999998 -33,18 -75,34 -78,29"
     id="path10"
     inkscape:connector-curvature="0"
     style="fill:none;stroke:#000000;stroke-width:20px;stroke-linecap:round;stroke-linejoin:round" />
  <path
     class="cls-1"
     d="m 298.01551,419.13179 v -72 c 0,0 0,-69 -49,-84 -49,-15 -76,53 -76,53"
     id="path12"
     inkscape:connector-curvature="0"
     style="fill:none;stroke:#000000;stroke-width:20px;stroke-linecap:round;stroke-linejoin:round" />
  <path
     class="cls-1"
     d="M 163.01551,186.13179 C 23.015514,180.13179 10.015514,54.131792 10.015514,54.131792"
     id="path14"
     inkscape:connector-curvature="0"
     style="fill:none;stroke:#000000;stroke-width:20px;stroke-linecap:round;stroke-linejoin:round" />
  <path
     class="cls-1"
     d="M 170.01551,419.13179 V 54.131792 c 0,0 14,-46.9999996 72,-44 58,3 53,58 53,72 0,14 -15,56.999998 -48,74.999998 -33,18 -75,34 -78,29"
     id="path16"
     inkscape:connector-curvature="0"
     style="fill:none;stroke:#000000;stroke-width:20px;stroke-linecap:round;stroke-linejoin:round" />
  <path
     class="cls-1"
     d="m 298.01551,419.13179 v -72 c 0,0 0,-69 -49,-84 -49,-15 -76,53 -76,53"
     id="path18"
     inkscape:connector-curvature="0"
     style="fill:none;stroke:#000000;stroke-width:20px;stroke-linecap:round;stroke-linejoin:round" />
</svg>
